<?xml version="1.0" standalone="no"?>
<!DOCTYPE svg PUBLIC "-//W3C//DTD SVG 20010904//EN"
 "http://www.w3.org/TR/2001/REC-SVG-20010904/DTD/svg10.dtd">
<svg version="1.0" xmlns="http://www.w3.org/2000/svg"
 width="434.000000pt" height="434.000000pt" viewBox="0 0 434.000000 434.000000"
 preserveAspectRatio="xMidYMid meet">
<metadata>
Created by potrace 1.11, written by Peter Selinger 2001-2013
</metadata>
<g transform="translate(0.000000,434.000000) scale(0.100000,-0.100000)"
fill="#000000" stroke="none">
<path d="M3797 3463 c-1 0 -38 -4 -81 -8 -91 -7 -94 -8 -106 -41 -5 -13 -13
-24 -17 -23 -38 6 -64 -3 -73 -26 -6 -16 -17 -25 -30 -25 -12 0 -30 -5 -41
-11 -19 -10 -20 -17 -14 -92 3 -45 8 -98 10 -117 2 -19 7 -80 10 -135 4 -55 8
-109 11 -120 5 -25 -18 21 -154 310 l-109 230 -74 -1 c-177 -3 -239 -16 -239
-50 0 -8 -4 -15 -10 -15 -5 -1 -14 -3 -20 -4 -5 -1 -19 -3 -31 -4 -12 0 -23
-10 -26 -21 -3 -12 -17 -23 -32 -26 -14 -3 -33 -9 -41 -13 -12 -7 -53 -134
-120 -376 -87 -319 -109 -386 -110 -349 0 6 -16 32 -36 58 l-36 48 20 21 c20
21 66 117 57 117 -3 0 0 12 6 28 15 39 12 160 -6 239 -28 120 -101 214 -193
250 -51 20 -181 23 -322 9 -41 -4 -100 -9 -130 -10 -114 -8 -195 -19 -207 -28
-7 -6 -13 -19 -13 -29 0 -24 -26 -14 -33 13 -6 22 -19 22 -250 3 -43 -3 -68
-20 -60 -41 8 -22 -14 -16 -42 12 -14 14 -29 23 -33 21 -4 -3 -51 -8 -106 -12
-147 -10 -164 -15 -178 -56 -3 -6 -31 -14 -70 -18 -5 -1 -8 -8 -8 -16 0 -16
-36 -39 -49 -31 -21 14 -43 -30 -79 -157 l-39 -138 -78 168 c-86 183 -92 194
-121 195 -26 1 -208 -12 -235 -17 -27 -5 -49 -24 -49 -41 0 -8 -11 -14 -26
-14 -33 0 -64 -17 -64 -35 0 -14 -13 -20 -34 -16 -4 1 -19 -6 -33 -14 -32 -22
-32 -24 72 -239 47 -98 85 -179 85 -181 0 -3 140 -303 233 -498 l51 -108 96 7
c52 4 111 8 130 10 19 1 43 3 53 3 9 1 23 12 29 26 8 18 19 25 39 25 19 0 34
9 49 29 14 21 31 31 53 33 35 3 33 -1 97 228 75 269 100 353 105 358 3 3 6
-17 6 -44 1 -27 3 -58 4 -69 1 -11 6 -58 9 -105 4 -47 9 -105 11 -130 4 -41
10 -113 20 -242 2 -26 7 -53 11 -59 6 -11 75 -9 243 6 61 5 61 6 65 32 2 10
11 20 21 21 10 3 15 0 11 -7 -4 -6 -2 -20 4 -31 10 -19 17 -20 100 -14 l89 6
-12 -26 c-7 -14 -16 -25 -22 -24 -24 5 -64 -14 -70 -32 -5 -17 -32 -26 -66
-22 -13 2 -41 -83 -128 -397 -50 -179 -92 -325 -94 -327 -4 -3 -98 -13 -194
-20 l-93 -6 -1 43 c-1 24 -3 53 -4 64 -1 11 -5 58 -9 105 -4 47 -9 108 -11
135 -2 28 -7 82 -9 120 -17 227 -22 278 -32 307 -5 18 -12 20 -87 14 -198 -14
-234 -23 -223 -53 3 -7 2 -13 -2 -14 -4 0 -22 -2 -41 -3 -19 -2 -37 -8 -39
-15 -7 -22 -34 -41 -57 -41 -31 0 -46 -29 -40 -77 2 -21 7 -72 10 -113 3 -41
7 -100 10 -130 3 -30 7 -84 10 -120 4 -63 13 -172 20 -255 2 -22 7 -78 11
-125 3 -47 7 -96 9 -110 1 -14 3 -44 3 -67 2 -45 22 -74 50 -69 9 2 55 7 102
10 47 4 139 11 205 16 66 6 152 13 190 16 91 7 105 12 105 34 0 26 19 35 27
13 4 -10 11 -21 17 -26 9 -6 120 -2 201 8 11 1 37 3 57 4 30 1 39 6 50 28 7
16 20 28 28 29 8 1 23 2 33 2 9 1 23 13 29 27 6 14 16 25 22 24 41 -5 55 3 67
36 8 22 20 35 31 35 10 0 20 1 23 2 2 1 29 5 60 8 l54 6 38 -76 38 -75 65 1
c36 0 102 4 148 8 75 7 84 10 92 32 12 30 30 31 37 3 6 -21 9 -21 112 -15 58
4 122 9 141 11 19 2 71 6 115 9 258 20 245 17 400 110 l110 67 3 -70 c4 -86 2
-85 163 -77 211 12 293 31 375 87 23 16 46 29 49 29 4 0 21 10 38 23 18 12 48
30 67 41 103 54 147 183 115 336 -29 137 -133 237 -283 269 -57 12 -106 34
-118 53 -5 8 7 9 46 5 58 -7 80 3 80 34 0 15 8 19 40 19 37 0 41 3 46 30 6 25
10 29 29 24 13 -3 33 -1 44 6 20 10 21 19 21 130 0 103 -2 120 -17 128 -22 11
-212 6 -307 -8 -79 -12 -145 -39 -231 -92 -33 -20 -84 -51 -113 -67 l-52 -29
-53 52 c-85 86 -155 98 -402 71 -22 -2 -80 -7 -130 -10 -49 -4 -103 -8 -120
-10 -16 -1 -38 -3 -47 -4 -10 0 -20 -12 -24 -26 -5 -21 -12 -25 -40 -25 -27 0
-37 -5 -46 -25 -6 -14 -14 -25 -17 -26 -69 -8 -83 -22 -77 -73 3 -23 8 -81 12
-131 6 -92 9 -138 19 -235 l5 -55 -29 57 c-16 32 -75 155 -131 275 -55 120
-106 220 -112 224 -6 4 -22 5 -37 4 -14 -2 -52 -6 -83 -9 l-58 -6 12 25 c8 18
19 25 38 25 27 0 66 31 54 43 -3 3 11 9 32 13 22 3 45 11 52 17 9 7 12 4 13
-9 4 -56 8 -69 25 -81 12 -9 33 -12 59 -9 22 3 81 8 130 11 115 8 124 11 136
43 10 26 11 26 24 8 13 -17 23 -18 122 -11 59 4 122 8 138 10 17 1 36 3 43 4
7 0 17 12 22 25 7 18 18 26 42 28 23 2 36 10 43 26 7 16 21 24 47 29 34 5 50
22 53 55 0 13 11 16 88 22 l78 6 35 -76 36 -76 111 7 c62 4 126 8 142 9 39 2
55 13 55 35 0 10 7 18 15 18 8 0 15 -6 15 -13 0 -17 30 -32 55 -28 11 2 56 5
100 8 74 6 153 12 250 21 22 2 81 7 130 10 87 7 121 18 109 36 -6 10 7 16 50
23 30 5 46 20 46 44 0 7 14 12 35 12 29 0 37 5 45 25 5 14 8 30 5 37 -2 7 -6
51 -9 97 -3 46 -11 90 -16 97 -11 13 -30 13 -217 -1 -59 -4 -103 -4 -104 1 0
5 -2 20 -4 34 -1 14 -6 63 -9 110 -4 47 -13 162 -21 255 -8 94 -17 213 -21
265 -3 52 -11 100 -16 107 -8 10 -112 15 -121 6z m-1782 -620 c4 -21 3 -33 -4
-33 -6 0 -11 8 -12 18 0 9 -3 28 -5 42 -7 37 13 11 21 -27z m1387 -1354 c57
-12 134 -47 124 -56 -3 -3 -29 -6 -58 -7 -50 -1 -53 -3 -56 -27 -3 -24 -7 -27
-41 -25 -33 1 -38 4 -34 21 2 11 4 39 5 63 1 23 2 42 4 42 2 0 27 -5 56 -11z"/>
</g>
</svg>
